<svg xmlns="http://www.w3.org/2000/svg">
<defs>
<clipPath id="clip0"> <rect width="15" height="15" fill="white" transform="translate(15) rotate(90)"/> </clipPath> 
 <clipPath id="clip0"> <rect width="18" height="18" fill="white" transform="translate(0 18) rotate(-90)"/> </clipPath>
</defs>
<symbol id="arrow-down" viewBox="0 0 15 15"> <g clip-path="url(#clip0)"> <path d="M8.0853 11.6669L14.7604 4.99166C14.9149 4.83727 15 4.63118 15 4.41142C15 4.19167 14.9149 3.98557 14.7604 3.83118L14.2689 3.3396C13.9487 3.01973 13.4282 3.01973 13.1084 3.3396L7.50311 8.94492L1.89157 3.33338C1.73706 3.17899 1.53109 3.09375 1.31146 3.09375C1.09158 3.09375 0.885606 3.17899 0.730973 3.33338L0.239635 3.82496C0.0851249 3.97947 3.76698e-06 4.18545 3.75737e-06 4.4052C3.74777e-06 4.62496 0.0851249 4.83105 0.239635 4.98544L6.9208 11.6669C7.0758 11.8216 7.28275 11.9066 7.50275 11.9061C7.7236 11.9066 7.93042 11.8216 8.0853 11.6669Z" fill="black"/> </g>  </symbol>
<symbol id="content-arrow" viewBox="0 0 18 18"> <g clip-path="url(#clip0)"> <path d="M8.29764 3.99939L0.287559 12.0096C0.102145 12.1949 -8.06437e-08 12.4422 -6.91167e-08 12.7059C-5.75898e-08 12.9696 0.102145 13.2169 0.287559 13.4022L0.87731 13.9921C1.2616 14.3759 1.88618 14.3759 2.26988 13.9921L8.99627 7.2657L15.7301 13.9996C15.9155 14.1848 16.1627 14.2871 16.4263 14.2871C16.6901 14.2871 16.9373 14.1848 17.1228 13.9995L17.7124 13.4097C17.8979 13.2242 18 12.9771 18 12.7134C18 12.4497 17.8979 12.2023 17.7124 12.0171L9.69504 3.99939C9.50904 3.81368 9.26071 3.71168 8.99671 3.71227C8.73169 3.71168 8.48349 3.81368 8.29764 3.99939Z" fill="white"/> </g>  </symbol>
<symbol id="like" viewBox="0 0 46 46"> <path d="M33.7812 2.69531C31.2851 2.69531 28.9966 3.4863 26.9794 5.04634C25.0456 6.54197 23.758 8.44693 23 9.83214C22.242 8.44684 20.9544 6.54197 19.0206 5.04634C17.0034 3.4863 14.7149 2.69531 12.2188 2.69531C5.25298 2.69531 0 8.39293 0 15.9485C0 24.1112 6.55347 29.696 16.4746 38.1505C18.1593 39.5863 20.0689 41.2138 22.0538 42.9494C22.3154 43.1785 22.6514 43.3047 23 43.3047C23.3486 43.3047 23.6846 43.1785 23.9462 42.9495C25.9312 41.2136 27.8408 39.5862 29.5265 38.1496C39.4465 29.696 46 24.1112 46 15.9485C46 8.39293 40.747 2.69531 33.7812 2.69531Z" fill="white"/> </symbol>
<symbol id="logo" viewBox="0 0 78 52"> <path d="M63.0559 15.8815L54.2119 15.8947L27.8012 40.7922H10.0354V23.4593L34.2348 0.848633L17.993 0.899213L0 17.6625V51.1511H34.0283L63.0418 23.5687L63.0559 15.8815Z" fill="white"/> <path d="M43.9721 0.848633L14.9586 28.4318L14.9453 36.1182L23.7884 36.1049L50.1991 11.2075H67.9649V28.5404L43.7656 51.1511L60.0074 51.1013L78.0004 34.338V0.848633H43.9721Z" fill="white"/> </symbol>
<symbol id="phone" viewBox="0 0 24 24"> <path fill-rule="evenodd" clip-rule="evenodd" d="M2.53616 22.2339C2.5366 22.2343 2.53704 22.2347 2.53748 22.2351C2.53795 22.2356 2.53842 22.236 2.53889 22.2365C2.70084 22.3896 2.85798 22.5388 3.00476 22.6855C3.00489 22.6857 3.00462 22.6854 3.00476 22.6855C3.00532 22.6861 3.00628 22.687 3.00685 22.6876C3.34798 23.0273 3.94462 23.1949 4.71087 23.1928C5.60655 23.1904 6.73398 22.9563 7.95599 22.4946C7.95626 22.4945 7.95572 22.4947 7.95599 22.4946C7.95607 22.4946 7.95697 22.4942 7.95704 22.4942C10.7603 21.4374 13.821 19.3363 16.5782 16.5799C16.5784 16.5797 16.5787 16.5794 16.579 16.5791C19.3369 13.821 21.4379 10.7586 22.4952 7.95616C23.3505 5.68758 23.4259 3.74428 22.686 3.00476C22.6859 3.00468 22.6861 3.00484 22.686 3.00476C22.5428 2.86158 22.3971 2.70831 22.2472 2.55056L22.232 2.53454C21.4613 1.7235 20.5906 0.807211 19.6263 0.807211C19.6053 0.807211 19.5843 0.807211 19.5633 0.808018C19.5632 0.808025 19.5635 0.808011 19.5633 0.808018C19.5618 0.808084 19.5598 0.808175 19.5582 0.808246C18.8792 0.839572 18.1496 1.33511 17.387 2.28124C15.102 5.12332 15.9098 5.91872 17.249 7.2361L17.5065 7.49038C17.507 7.49092 17.5076 7.49146 17.5081 7.492C18.5742 8.56369 17.4814 10.6533 14.0676 14.0662C14.0675 14.0663 14.0678 14.066 14.0676 14.0662C12.6858 15.4488 11.4957 16.4678 10.5327 17.0942C10.5327 17.0942 10.5327 17.0941 10.5327 17.0942C9.14516 17.9961 8.12278 18.1361 7.49303 17.5071C7.49263 17.5067 7.49223 17.5063 7.49182 17.5058L7.23351 17.2451C5.91651 15.9095 5.12125 15.1031 2.28107 17.3872C1.33194 18.1499 0.836102 18.8823 0.80785 19.5627C0.807829 19.5632 0.807806 19.5638 0.807785 19.5643C0.807781 19.5644 0.807789 19.5642 0.807785 19.5643C0.767881 20.5532 1.70594 21.4449 2.53393 22.2318L2.53616 22.2339ZM0.00222015 19.5312C-0.0534458 20.8874 1.02617 21.9138 1.97993 22.8192C1.98042 22.8196 1.98091 22.8201 1.98141 22.8206C1.98135 22.8205 1.98147 22.8206 1.98141 22.8206C2.0016 22.8398 2.02189 22.8592 2.04194 22.8783C2.17772 23.0077 2.30984 23.1336 2.43404 23.2571C2.43444 23.2575 2.43485 23.2579 2.43525 23.2583C2.92848 23.7523 3.71716 24.0001 4.71087 24.0001C5.70915 24.0001 6.91477 23.75 8.24063 23.2498C8.24043 23.2499 8.24082 23.2497 8.24063 23.2498C8.24081 23.2497 8.24158 23.2495 8.24175 23.2494C11.1491 22.1533 14.3124 19.987 17.1488 17.1507C17.1488 17.1508 17.1488 17.1507 17.1488 17.1507C17.1491 17.1505 17.1494 17.1501 17.1497 17.1499C19.9869 14.3127 22.1534 11.1486 23.2505 8.24113C24.2475 5.5974 24.2502 3.42672 23.2565 2.43381C23.2566 2.43391 23.2564 2.4337 23.2565 2.43381C23.1182 2.29555 22.9774 2.14717 22.8324 1.9944L22.8182 1.97936C22.8182 1.97937 22.8182 1.97934 22.8182 1.97936C21.9333 1.04882 20.9361 0.00440513 19.6263 1.38958e-05C19.5952 -9.05375e-05 19.5638 0.000393217 19.5323 0.00148068C19.5314 0.00151385 19.5304 0.00154759 19.5294 0.00158189C19.5296 0.00157449 19.5293 0.00158924 19.5294 0.00158189C18.5943 0.040517 17.6877 0.62143 16.7598 1.77571C16.76 1.77547 16.7596 1.77596 16.7598 1.77571C16.7597 1.7758 16.759 1.77662 16.759 1.77671C14.0175 5.18616 15.2512 6.40243 16.6814 7.81084C16.6818 7.81116 16.6821 7.81147 16.6824 7.81179L16.6839 7.81328L16.9366 8.06352C16.9372 8.06418 16.9379 8.06485 16.9386 8.06552C17.1731 8.30375 17.6014 9.39326 13.4982 13.4966C12.1549 14.8399 11.009 15.8236 10.0936 16.4185C9.51781 16.7926 8.48864 17.3584 8.06481 16.9382C8.06432 16.9377 8.06384 16.9372 8.06335 16.9367L7.80907 16.68C7.80866 16.6796 7.80824 16.6792 7.80782 16.6788C7.80738 16.6783 7.80695 16.6779 7.80651 16.6774C6.3998 15.2506 5.18353 14.0211 1.77685 16.7597C0.622505 17.6874 0.0417938 18.5927 0.00230408 19.5292C0.00230408 19.5292 0.00230408 19.5292 0.00230408 19.5292C0.00227737 19.5299 0.00224686 19.5306 0.00222015 19.5312Z" fill="currentColor"/> </symbol>
</svg>